<?xml version="1.0" standalone="no"?>
<!DOCTYPE svg PUBLIC "-//W3C//DTD SVG 20010904//EN"
 "http://www.w3.org/TR/2001/REC-SVG-20010904/DTD/svg10.dtd">
<svg version="1.0" xmlns="http://www.w3.org/2000/svg"
 width="128.000000pt" height="128.000000pt" viewBox="0 0 128.000000 128.000000"
 preserveAspectRatio="xMidYMid meet">
<metadata>
Created by potrace 1.11, written by Peter Selinger 2001-2013
</metadata>
<g transform="translate(0.000000,128.000000) scale(0.100000,-0.100000)"
fill="#000000" stroke="none">
<path d="M561 1094 c-13 -17 -21 -41 -21 -65 0 -69 -64 -86 -114 -30 -30 34
-70 27 -121 -20 -55 -50 -58 -80 -15 -134 34 -43 36 -52 15 -81 -10 -16 -29
-23 -66 -26 -66 -7 -79 -24 -79 -100 0 -73 18 -94 81 -96 31 -1 49 -8 62 -23
23 -29 22 -40 -13 -84 -41 -52 -39 -80 12 -132 51 -52 80 -55 133 -13 55 44
105 26 105 -37 0 -35 15 -72 34 -85 6 -4 37 -8 69 -8 71 0 97 21 97 78 0 76
54 102 108 52 54 -49 90 -40 155 38 34 42 34 53 -2 94 -56 64 -38 118 40 118
59 0 79 26 79 100 0 73 -21 100 -76 100 -53 0 -74 15 -74 53 0 23 8 41 28 60
38 37 38 65 -3 110 -62 69 -92 75 -142 28 -27 -25 -66 -33 -87 -18 -9 7 -20
36 -25 66 -11 68 -28 81 -102 81 -50 0 -60 -3 -78 -26z m193 -291 c23 -16 51
-48 64 -73 71 -142 -43 -307 -199 -286 -162 22 -231 209 -122 332 60 69 178
82 257 27z"/>
</g>
</svg>
